PathFileType	4	(X/Y/Z)	D:\Share\Shared_Data\Ergonomics\Sit To Stand Pertubation\S2\Unperturbed.trc
DataRate	CameraRate	NumFrames	NumMarkers	Units	OrigDataRate	OrigDataStartFrame	OrigNumFrames	
100	100	9	18	m	100	4521	241
Frame#	Time	R_Toe			R_ASIS			R_Pelvis			V_Sacral			L_Pelvis			L_ASIS			Clavical			R_Acromium			L_Acromium			Sternum			Torso			R_Thigh_Med			R_Thigh_Lat			R_Thigh			R_Shank_Med			R_Shank_Lat			R_Shank			R_Heel			
		X1	Y1	Z1	X2	Y2	Z2	X3	Y3	Z3	X4	Y4	Z4	X5	Y5	Z5	X6	Y6	Z6	X7	Y7	Z7	X8	Y8	Z8	X9	Y9	Z9	X10	Y10	Z10	X11	Y11	Z11	X12	Y12	Z12	X13	Y13	Z13	X14	Y14	Z14	X15	Y15	Z15	X16	Y16	Z16	X17	Y17	Z17	X18	Y18	Z18	

4521	45.2	0.44113638	0.068306732	0.14840054	0.030679663	0.63275885	0.13934274	-0.043190739	0.6513429	0.17653123	-0.18771127	0.6125871	0.021520298	-0.079532883	0.6562262	-0.1568373	0.020095091	0.64823309	-0.12967108	0.25334396	0.91950055	-0.0039413121	0.19486246	0.99450031	0.2002993	0.18446623	0.9965238	-0.18849394	0.20836032	0.76393372	0.00021654473	0.23916495	0.88104407	-0.11519524	0.39926202	0.49620663	0.11902233	0.37143433	0.50659842	0.22324063	0.21456714	0.62313055	0.16926076	0.30555899	0.1099423	0.11362634	0.28520593	0.10025896	0.20595715	0.35431088	0.35539981	0.23713144	0.2028974	0.059450897	0.15329288
4522	45.21	0.44106607	0.068859055	0.14849821	0.034449566	0.63353687	0.13944328	-0.039204521	0.65318835	0.17657411	-0.18410376	0.6162074	0.021587179	-0.074868942	0.65856256	-0.15662048	0.024400671	0.64899109	-0.12943233	0.26232849	0.9159538	-0.00390289	0.2050363	0.99219757	0.20011722	0.19526765	0.99404449	-0.1887007	0.21570206	0.76104419	0.00045433468	0.24762283	0.87780536	-0.11510813	0.40095374	0.4957002	0.11913245	0.37302234	0.50613721	0.22329564	0.21672377	0.62373151	0.16974202	0.30553125	0.11000971	0.11383652	0.28510913	0.09999984	0.20619669	0.35525967	0.35496802	0.23712454	0.20280061	0.059164127	0.15328096
4523	45.22	0.44100183	0.069443573	0.14860898	0.038366379	0.63453345	0.13952612	-0.035054573	0.65526672	0.17660693	-0.18032738	0.62005865	0.021700811	-0.070078674	0.66105634	-0.15642688	0.028808264	0.64990161	-0.12921201	0.27137421	0.91261481	-0.0038703532	0.21511812	0.99004779	0.19991666	0.20600323	0.99178571	-0.18889592	0.22325363	0.75832593	0.0007128979	0.25617178	0.87481409	-0.11501364	0.40277872	0.4951543	0.1192884	0.37474258	0.50562375	0.22339735	0.21909183	0.6243501	0.17033789	0.30550534	0.11007395	0.11406705	0.28503366	0.099729866	0.20645918	0.35630215	0.35450211	0.23716589	0.2027159	0.058887749	0.15326353
4524	45.23	0.44094635	0.07003891	0.14873079	0.042419884	0.63571765	0.13958128	-0.030751253	0.65754102	0.17663531	-0.17639398	0.62410706	0.021859442	-0.065203804	0.66368329	-0.15626122	0.033284706	0.65094519	-0.12901894	0.28044171	0.90950818	-0.0038611054	0.22505487	0.98806909	0.19969229	0.21660442	0.989797	-0.18908212	0.23095309	0.75581158	0.00097999662	0.26476834	0.87210767	-0.11489491	0.40474252	0.49455438	0.11945752	0.37661139	0.50506235	0.22352103	0.22167679	0.62495599	0.1709827	0.30548404	0.11012824	0.1143101	0.28498001	0.099450851	0.20673686	0.35744693	0.35400513	0.23723773	0.20264397	0.058633785	0.15325131
4525	45.24	0.44090439	0.070616974	0.14885799	0.046593037	0.63705554	0.13960236	-0.02631209	0.65996832	0.17666531	-0.17232048	0.62830475	0.022052534	-0.060282265	0.66641364	-0.15612517	0.037800995	0.65210205	-0.12885851	0.28948206	0.90666168	-0.0038933482	0.23478983	0.98628003	0.19944122	0.22699301	0.98812659	-0.1892619	0.23869824	0.75353497	0.0012286776	0.27334119	0.86972333	-0.11474094	0.40684937	0.49389127	0.11960209	0.37864142	0.50446225	0.2236326	0.22448102	0.62553339	0.17159468	0.30547327	0.11016634	0.11455559	0.28495206	0.099167732	0.20702025	0.35870316	0.35348306	0.23731572	0.20258609	0.058410542	0.15324852
4526	45.25	0.44088171	0.071147057	0.1489823	0.050861629	0.63851959	0.13958525	-0.021762039	0.66250739	0.17670013	-0.16813048	0.63259064	0.022258017	-0.055346302	0.66921313	-0.15601849	0.042333508	0.65335577	-0.1287346	0.29843799	0.90411188	-0.003982033	0.24426367	0.98470038	0.19916393	0.23708249	0.98681995	-0.18943573	0.24635876	0.75153577	0.0014197757	0.28180118	0.8676983	-0.11454916	0.40909875	0.49316046	0.11968137	0.38084058	0.50383453	0.22369199	0.2275041	0.62608093	0.17208948	0.3054808	0.11018325	0.11479126	0.2849563	0.098889175	0.20729803	0.36008047	0.35294397	0.23737021	0.20254398	0.058222008	0.15325383
4527	45.26	0.44088223	0.07160276	0.14909457	0.055195717	0.64009662	0.13952707	-0.017132833	0.66512689	0.17673758	-0.16385577	0.63689478	0.022446913	-0.050422997	0.67204816	-0.15594061	0.046862164	0.65469879	-0.12865047	0.30724261	0.90190765	-0.0041347485	0.25341647	0.98335266	0.19886584	0.24678244	0.98591846	-0.18960077	0.25379219	0.74986145	0.0015078309	0.29005255	0.8660708	-0.11432603	0.41148264	0.49236078	0.11965647	0.38321109	0.5031897	0.22365796	0.23074483	0.6266076	0.17239735	0.30551318	0.1101762	0.11500397	0.28499841	0.098625572	0.20755786	0.36158688	0.35239627	0.23736952	0.20251866	0.058068642	0.15326297
4528	45.27	0.44090588	0.071968788	0.14918709	0.059562134	0.64179156	0.13942641	-0.012461468	0.66780933	0.17677078	-0.15953668	0.64114648	0.022595142	-0.045536854	0.67489319	-0.1558911	0.051366318	0.65613733	-0.12860805	0.31581943	0.90011072	-0.0043494725	0.26219006	0.98226306	0.19855858	0.25600546	0.98545868	-0.18975212	0.2608649	0.74856647	0.0014516782	0.29800372	0.86488025	-0.11408573	0.4139845	0.49149393	0.11949672	0.38574905	0.5025347	0.22349522	0.23420331	0.62712769	0.17247961	0.30557291	0.11014491	0.11518179	0.28507947	0.098386482	0.20778784	0.3632226	0.35184778	0.23728465	0.20250974	0.05794772	0.15327083
4529	45.28	0.44094904	0.07224321	0.14925549	0.063926956	0.64362305	0.13928429	-0.0077873917	0.67055139	0.17679121	-0.15521883	0.64528918	0.02269109	-0.040711151	0.6777359	-0.15587041	0.055822884	0.6576889	-0.12860699	0.32408459	0.89879004	-0.0046163898	0.27053204	0.98146277	0.1982592	0.26467575	0.9854718	-0.18988492	0.26747739	0.7477099	0.0012281048	0.30557681	0.86416827	-0.1138477	0.41658145	0.49056491	0.11918452	0.38844302	0.50187265	0.22318091	0.23787788	0.62765625	0.17233664	0.30565778	0.11009113	0.11531556	0.28519513	0.098179169	0.20797775	0.36497519	0.35130511	0.23709431	0.20251569	0.057853405	0.15327208
